<?xml version="1.0" encoding="UTF-8"?>
<svg version="1.1" xmlns="http://www.w3.org/2000/svg" width="68" height="96">
<path d="M0 0 C3.83301908 3.32194987 6.5612279 6.24266374 7.37109375 11.33203125 C7.54758613 17.9245409 6.33013507 21.02034467 2 26 C2.639375 26.598125 3.27875 27.19625 3.9375 27.8125 C6.54474444 30.57775926 6.9491416 32.36426996 7.25 36.125 C6.94888129 40.79234004 5.65444493 44.65708205 4 49 C4.78375 49.721875 5.5675 50.44375 6.375 51.1875 C10.70139724 55.82292561 11.40771991 59.67215948 11.25390625 65.85546875 C10.67897382 70.71143651 7.55553574 73.88890623 4 77 C-0.34640432 78.44880144 -4.46281306 78.66123344 -9 78 C-11.51786838 76.58524488 -12.98305102 75.12310419 -15 73 C-15.804375 73.804375 -16.60875 74.60875 -17.4375 75.4375 C-21.3090434 78.6424805 -25.04241665 79.29416725 -30 79 C-35.24235139 77.42729458 -38.53901999 75.23008667 -42 71 C-44.6677849 65.8620439 -45.94911558 60.64611538 -47 55 C-47.16967285 54.08903564 -47.3393457 53.17807129 -47.51416016 52.23950195 C-48.33586916 46.76047844 -48.22608217 41.28099829 -48.25 35.75 C-48.270625 34.57308594 -48.29125 33.39617188 -48.3125 32.18359375 C-48.35573789 22.46587747 -47.28848725 13.76813131 -41 6 C-31.30868827 -3.4144171 -11.77081761 -7.42073284 0 0 Z M-39.5 10.8125 C-46.69007591 26.09141132 -45.05321142 47.03849453 -40.125 62.875 C-38.6429318 66.81432624 -37.12522745 70.07640013 -34 73 C-30.25795338 74.24734887 -26.88089614 74.6151714 -23 74 C-19.34747701 71.80848621 -18.24566603 69.81822637 -17.03125 65.7734375 C-16.2671222 62.52589434 -15.59123559 59.28303992 -15 56 C-15.60328125 56.09539062 -16.2065625 56.19078125 -16.828125 56.2890625 C-17.62734375 56.39992187 -18.4265625 56.51078125 -19.25 56.625 C-20.03890625 56.74101563 -20.8278125 56.85703125 -21.640625 56.9765625 C-24.32152459 57.00319395 -25.72694089 56.36592084 -28 55 C-28.25 52.1875 -28.25 52.1875 -28 49 C-25.7754581 46.41953139 -24.00029976 46.00007353 -20.6875 45.1875 C-16.64097118 44.9817443 -13.84718423 45.81087033 -10 47 C-6.00275601 47.47966928 -4.57126928 47.38084618 -1.1875 45.125 C0.96885529 43.03025486 1.92195968 42.10174574 2.1328125 39.125 C2.12894531 38.073125 2.12894531 38.073125 2.125 37 C2.12757812 36.29875 2.13015625 35.5975 2.1328125 34.875 C2.11377236 32.90846225 2.11377236 32.90846225 1 31 C0.34 31 -0.32 31 -1 31 C-1 30.34 -1 29.68 -1 29 C-5.16950773 27.80549238 -7.36396047 28.24037085 -11.3125 29.9375 C-17.22047617 32.24966342 -21.83320021 33.05559993 -28 31 C-28.36 25.6 -28.36 25.6 -26.875 23.125 C-24.12585171 21.47551103 -22.15717868 21.68428213 -19 22 C-18.21625 22.33 -17.4325 22.66 -16.625 23 C-11.71697489 24.86972385 -7.50721749 24.54032325 -2.6875 22.8125 C0.38728008 20.73881111 1.6626644 19.4613392 3 16 C3 11.61403701 2.24953375 9.38897907 -0.125 5.6875 C-4.25154471 1.83007777 -7.78344655 1.16728705 -13.3125 0.75 C-22.91323862 1.40089753 -32.8507585 3.33210332 -39.5 10.8125 Z M-23 25 C-23.33 25.99 -23.66 26.98 -24 28 C-21.60280568 28.67958603 -21.60280568 28.67958603 -19 29 C-18.34 28.34 -17.68 27.68 -17 27 C-18.98 26.34 -20.96 25.68 -23 25 Z M-25 51 C-25 51.66 -25 52.32 -25 53 C-22.02148438 52.90234375 -22.02148438 52.90234375 -19.04296875 52.8046875 C-17 53 -17 53 -14 55 C-13.34 53.35 -12.68 51.7 -12 50 C-16.85488805 48.38170398 -20.68768057 48.12512038 -25 51 Z M-7.6875 52.3125 C-11.46110064 56.69803587 -13 62.23563843 -13 68 C-12.01 68 -11.02 68 -10 68 C-9.814375 69.2065625 -9.814375 69.2065625 -9.625 70.4375 C-9.41875 71.283125 -9.2125 72.12875 -9 73 C-5.47867239 74.76066381 -1.72538222 73.93299981 2 73 C4.92003722 70.79216698 5.78387242 69.2468899 6.40625 65.65625 C6.66628751 61.33962738 6.51665055 57.97679879 3.875 54.4375 C-0.16740188 51.01024623 -2.7901072 49.92075003 -7.6875 52.3125 Z " fill="#2AD2E3" transform="translate(53,11)"/>
<path d="M0 0 C-0.99 0 -1.98 0 -3 0 C-3 0.66 -3 1.32 -3 2 C-0.03 2 2.94 2 6 2 C6 2.33 6 2.66 6 3 C5.39414062 3.08636719 4.78828125 3.17273438 4.1640625 3.26171875 C-2.89476566 4.44542993 -10.31988098 6.16074069 -15.4453125 11.5078125 C-23.3058824 24.49230944 -20.50619235 45.70358548 -17.1875 59.625 C-15.89411992 64.83019493 -14.33897165 68.76427596 -11 73 C-7.98509443 74.00496852 -5.95818308 74.10335303 -2.8125 74.0625 C-1.91144531 74.05347656 -1.01039062 74.04445313 -0.08203125 74.03515625 C0.60503906 74.02355469 1.29210937 74.01195313 2 74 C1.67 74.66 1.34 75.32 1 76 C-2.3 76 -5.6 76 -9 76 C-9 76.66 -9 77.32 -9 78 C-5.37 78 -1.74 78 2 78 C-1.87920349 80.58613566 -3.93942398 80.1723998 -8.4296875 79.58984375 C-12.48505625 78.65920442 -15.22582191 77.10707946 -18 74 C-21.4123646 68.48031306 -22.8841431 62.33055448 -24 56 C-24.16894775 55.09048584 -24.33789551 54.18097168 -24.51196289 53.24389648 C-25.33647735 47.76349449 -25.22607469 42.28272793 -25.25 36.75 C-25.270625 35.57308594 -25.29125 34.39617188 -25.3125 33.18359375 C-25.35573789 23.46587747 -24.28848725 14.76813131 -18 7 C-13.45910838 2.58884814 -6.43975369 -2.26340549 0 0 Z " fill="#25ADD4" transform="translate(30,10)"/>
<path d="M0 0 C-0.99 0 -1.98 0 -3 0 C-3 0.66 -3 1.32 -3 2 C-0.03 2 2.94 2 6 2 C6 2.33 6 2.66 6 3 C5.39414062 3.08636719 4.78828125 3.17273438 4.1640625 3.26171875 C-2.47089543 4.37435016 -8.35883521 6.24633269 -14 10 C-15.99317643 12.61607721 -15.99317643 12.61607721 -17 15 C-17.66 15 -18.32 15 -19 15 C-19 15.66 -19 16.32 -19 17 C-19.66 17 -20.32 17 -21 17 C-21.42755676 14.07836213 -21.46285053 11.86855902 -20.05078125 9.21875 C-15.7605302 3.61314978 -7.27838039 -2.733664 0 0 Z " fill="#28BEE8" transform="translate(30,10)"/>
<path d="M0 0 C0.66 0 1.32 0 2 0 C3.99369954 3.98739908 3.65764979 8.67656158 3 13 C0.78774202 16.62642289 -1.94604237 18.64868079 -6 20 C-7.68545724 20.09287771 -9.374493 20.12997204 -11.0625 20.125 C-12.37927734 20.12886719 -12.37927734 20.12886719 -13.72265625 20.1328125 C-16 20 -16 20 -18 19 C-18.40729228 16.67843403 -18.74438677 14.3431213 -19 12 C-18.34 13.32 -17.68 14.64 -17 16 C-15.08135229 15.74357696 -13.16509006 15.46926564 -11.25 15.1875 C-10.18265625 15.03667969 -9.1153125 14.88585937 -8.015625 14.73046875 C-4.86744297 13.96789098 -3.24506039 13.31918974 -1 11 C-0.30700965 8.80561619 -0.30700965 8.80561619 -0.25 6.4375 C-0.19328125 5.65246094 -0.1365625 4.86742188 -0.078125 4.05859375 C-0.02681032 2.70645191 0 1.3531152 0 0 Z " fill="#2AD7E4" transform="translate(60,69)"/>
<path d="M0 0 C0 0.33 0 0.66 0 1 C-4.455 1.495 -4.455 1.495 -9 2 C-6.03 2.495 -6.03 2.495 -3 3 C-3 3.33 -3 3.66 -3 4 C-3.56589844 4.12117188 -4.13179687 4.24234375 -4.71484375 4.3671875 C-5.44832031 4.53476562 -6.18179688 4.70234375 -6.9375 4.875 C-8.03384766 5.11863281 -8.03384766 5.11863281 -9.15234375 5.3671875 C-11.20700294 5.82961523 -11.20700294 5.82961523 -12 8 C-11.34 7.67 -10.68 7.34 -10 7 C-7.0625 6.6875 -7.0625 6.6875 -4 7 C-2.30859375 9.01953125 -2.30859375 9.01953125 -1 11 C-9.81500987 13.37919684 -9.81500987 13.37919684 -14.125 12 C-16 10 -16 10 -16.625 7.0625 C-16 4 -16 4 -13.75 1.6875 C-8.74778367 -1.38204184 -5.79732517 -1.0033832 0 0 Z " fill="#28C3E1" transform="translate(40,56)"/>
<path d="M0 0 C2.875 1 2.875 1 5 2 C2.50935112 2.68707555 0.62113708 3 -2 3 C-0.02 3.99 1.96 4.98 4 6 C4 6.66 4 7.32 4 8 C3.01 8.33 2.02 8.66 1 9 C2.98 9 4.96 9 7 9 C4.21122917 11.78877083 1.79375187 12.15157432 -2 12.1875 C-2.680625 12.20167969 -3.36125 12.21585938 -4.0625 12.23046875 C-6 12 -6 12 -9 10 C-9.9375 7.125 -9.9375 7.125 -10 4 C-7.25404293 -0.17385475 -4.81454283 -0.58953586 0 0 Z M-4 4 C-4.33 4.99 -4.66 5.98 -5 7 C-2.60280568 7.67958603 -2.60280568 7.67958603 0 8 C0.66 7.34 1.32 6.68 2 6 C0.02 5.34 -1.96 4.68 -4 4 Z " fill="#26B7D1" transform="translate(34,32)"/>
<path d="M0 0 C0.69738281 0.00902344 1.39476562 0.01804687 2.11328125 0.02734375 C3.82566958 0.05080112 5.53788004 0.08666896 7.25 0.125 C7.25 1.115 7.25 2.105 7.25 3.125 C3.94005287 4.77997356 0.25877 4.22584335 -3.375 4.1875 C-4.17679688 4.18298828 -4.97859375 4.17847656 -5.8046875 4.17382812 C-7.78649006 4.16203168 -9.76825433 4.14409605 -11.75 4.125 C-11.75 3.465 -11.75 2.805 -11.75 2.125 C-8.00764681 -0.32489101 -4.30774581 -0.10586143 0 0 Z " fill="#2BDAEA" transform="translate(38.75,7.875)"/>
<path d="M0 0 C0.33 0 0.66 0 1 0 C0.67 9.24 0.34 18.48 0 28 C-2.56382279 25.43617721 -2.25703311 24.43625685 -2.265625 20.87890625 C-2.26820313 19.86119141 -2.27078125 18.84347656 -2.2734375 17.79492188 C-2.26570312 16.72822266 -2.25796875 15.66152344 -2.25 14.5625 C-2.25773438 13.49966797 -2.26546875 12.43683594 -2.2734375 11.34179688 C-2.27085937 10.32279297 -2.26828125 9.30378906 -2.265625 8.25390625 C-2.26224121 6.85120483 -2.26224121 6.85120483 -2.25878906 5.42016602 C-2 3 -2 3 0 0 Z " fill="#2ACAFC" transform="translate(8,30)"/>
<path d="M0 0 C3.10158921 2.79143029 4.91835482 4.94383057 6 9 C6.15194292 12.00846986 6.11800529 14.99086522 6 18 C5.67 18 5.34 18 5 18 C4.67 14.7 4.34 11.4 4 8 C3.34 8 2.68 8 2 8 C2.33 8.66 2.66 9.32 3 10 C2.94921875 12.12890625 2.94921875 12.12890625 2.6875 14.5625 C2.60886719 15.36816406 2.53023437 16.17382812 2.44921875 17.00390625 C2.30097656 17.66261719 2.15273438 18.32132813 2 19 C1.34 19.33 0.68 19.66 0 20 C0.01160156 19.16855469 0.02320313 18.33710937 0.03515625 17.48046875 C0.04869141 15.85044922 0.04869141 15.85044922 0.0625 14.1875 C0.07410156 13.10855469 0.08570313 12.02960938 0.09765625 10.91796875 C0.13624766 7.93487831 0.13624766 7.93487831 -1 5 C-0.01 5 0.98 5 2 5 C1.34 3.35 0.68 1.7 0 0 Z " fill="#26B8C8" transform="translate(58,61)"/>
<path d="M0 0 C0.33 0 0.66 0 1 0 C1.36666667 5.5 1.36666667 5.5 -0.375 7.875 C-2 9 -2 9 -4 9 C-4.33 10.32 -4.66 11.64 -5 13 C-7.64 12.34 -10.28 11.68 -13 11 C-10.98626513 8.98626513 -9.62624669 8.30943756 -7.0625 7.1875 C-3.37722116 5.41829911 -1.77876014 3.76678618 0 0 Z " fill="#2BEBF2" transform="translate(57,27)"/>
<path d="M0 0 C0 1.32 0 2.64 0 4 C0.99 4.33 1.98 4.66 3 5 C4.6875 8.0625 4.6875 8.0625 6 11 C4.125 10.6875 4.125 10.6875 2 10 C1.34 9.01 0.68 8.02 0 7 C-2.19454681 6.42006301 -2.19454681 6.42006301 -4.625 6.3125 C-5.44226562 6.24675781 -6.25953125 6.18101563 -7.1015625 6.11328125 C-7.72804687 6.07589844 -8.35453125 6.03851563 -9 6 C-8.67 5.01 -8.34 4.02 -8 3 C-6.68 3 -5.36 3 -4 3 C-4 2.34 -4 1.68 -4 1 C-2 0 -2 0 0 0 Z " fill="#2CF2F8" transform="translate(55,56)"/>
<path d="M0 0 C-0.99 0 -1.98 0 -3 0 C-3 0.66 -3 1.32 -3 2 C-0.03 2 2.94 2 6 2 C6 2.33 6 2.66 6 3 C5.34773438 3.12117187 4.69546875 3.24234375 4.0234375 3.3671875 C-0.78646342 4.28943989 -5.39025465 5.30167277 -10 7 C-10.33 5.35 -10.66 3.7 -11 2 C-3.57142857 -1.57142857 -3.57142857 -1.57142857 0 0 Z " fill="#27B9D7" transform="translate(30,10)"/>
<path d="M0 0 C5.875 4.625 5.875 4.625 7 8 C7.03954234 10.33299825 7.04401732 12.66708189 7 15 C6.67 15 6.34 15 6 15 C5.67 12.36 5.34 9.72 5 7 C4.34 7 3.68 7 3 7 C3 9.64 3 12.28 3 15 C2.67 15 2.34 15 2 15 C1.67 12.03 1.34 9.06 1 6 C0.34 6 -0.32 6 -1 6 C-0.67 4.02 -0.34 2.04 0 0 Z " fill="#26BFCD" transform="translate(53,36)"/>
<path d="M0 0 C0.33 1.32 0.66 2.64 1 4 C1.66 4 2.32 4 3 4 C3.33 3.34 3.66 2.68 4 2 C3.34 8.6 2.68 15.2 2 22 C1.67 22 1.34 22 1 22 C0.67 17.38 0.34 12.76 0 8 C-0.66 8.66 -1.32 9.32 -2 10 C-1.125 2.25 -1.125 2.25 0 0 Z " fill="#24A3C7" transform="translate(8,23)"/>
<path d="M0 0 C1.60080151 4.00200378 0.29279692 7.04556236 -1 11 C-0.01 11 0.98 11 2 11 C2.12375 11.804375 2.2475 12.60875 2.375 13.4375 C2.684375 14.7059375 2.684375 14.7059375 3 16 C3.66 16.33 4.32 16.66 5 17 C3.66666667 17 2.33333333 17 1 17 C0.67 17.66 0.34 18.32 0 19 C-2.54072395 15.74787334 -3.0124983 14.26246437 -2.8125 10.0625 C-2.21801083 6.58143565 -1.24110209 3.30960557 0 0 Z " fill="#26B5C8" transform="translate(41,68)"/>
<path d="M0 0 C1.29065057 3.8719517 0.22324098 6.44232601 -0.9375 10.1875 C-1.23043945 11.16879883 -1.23043945 11.16879883 -1.52929688 12.16992188 C-2.01182563 13.78227407 -2.50490205 15.39146289 -3 17 C-3.66 17 -4.32 17 -5 17 C-4.52224079 11.45547862 -3.86383815 6.26260185 -2 1 C-1.34 0.67 -0.68 0.34 0 0 Z " fill="#2DEAF9" transform="translate(41,65)"/>
<path d="M0 0 C3 1 3 1 4 3 C4.06996014 4.70702735 4.08440154 6.41668003 4.0625 8.125 C4.05347656 9.03507812 4.04445313 9.94515625 4.03515625 10.8828125 C4.02355469 11.58148438 4.01195312 12.28015625 4 13 C3.01 12.34 2.02 11.68 1 11 C0.48828125 8.3984375 0.48828125 8.3984375 0.3125 5.375 C0.24675781 4.37210937 0.18101563 3.36921875 0.11328125 2.3359375 C0.07589844 1.56507812 0.03851563 0.79421875 0 0 Z " fill="#29C3F3" transform="translate(8,64)"/>
<path d="M0 0 C5.4389165 -0.21755666 9.87080814 -0.10428384 15 2 C14.01 2.99 13.02 3.98 12 5 C10.7315625 4.5359375 10.7315625 4.5359375 9.4375 4.0625 C5.9502146 2.98461179 2.61822465 2.43418696 -1 2 C-0.67 1.34 -0.34 0.68 0 0 Z " fill="#2DE6FA" transform="translate(31,57)"/>
<path d="M0 0 C2.97 0.495 2.97 0.495 6 1 C5.34 1.66 4.68 2.32 4 3 C4.99 3.99 5.98 4.98 7 6 C6.67 6.66 6.34 7.32 6 8 C5.2575 7.54625 4.515 7.0925 3.75 6.625 C1.53069422 5.31359204 -0.67967822 4.11719197 -3 3 C-2.01 2.67 -1.02 2.34 0 2 C0 1.34 0 0.68 0 0 Z " fill="#27C4D2" transform="translate(46,9)"/>
<path d="M0 0 C0.66 0 1.32 0 2 0 C3.60725635 3.21451269 3.05748185 6.43612536 3 10 C2.01 10.33 1.02 10.66 0 11 C0 7.37 0 3.74 0 0 Z " fill="#2CF7FA" transform="translate(60,69)"/>
<path d="M0 0 C0.66 0.99 1.32 1.98 2 3 C1.67 3.99 1.34 4.98 1 6 C-1.64 5.34 -4.28 4.68 -7 4 C-4.77810176 1.77810176 -2.91517292 1.07401108 0 0 Z " fill="#2DF6FC" transform="translate(51,34)"/>
<path d="M0 0 C0.66 0 1.32 0 2 0 C3.2380014 3.57644848 2.74926071 6.33694766 2 10 C1.34 10 0.68 10 0 10 C0 6.7 0 3.4 0 0 Z " fill="#2CF6FA" transform="translate(56,43)"/>
<path d="M0 0 C0 0.99 0 1.98 0 3 C-2.97 3 -5.94 3 -9 3 C-9 2.34 -9 1.68 -9 1 C-5.94152152 0.45627049 -3.11227195 0 0 0 Z " fill="#2DF0FA" transform="translate(55,85)"/>
<path d="M0 0 C0.99 0.99 1.98 1.98 3 3 C1.37828761 3.38897161 -0.24754925 3.76078298 -1.875 4.125 C-2.77992187 4.33382812 -3.68484375 4.54265625 -4.6171875 4.7578125 C-5.40351563 4.83773437 -6.18984375 4.91765625 -7 5 C-7.66 4.34 -8.32 3.68 -9 3 C-4.545 2.505 -4.545 2.505 0 2 C0 1.34 0 0.68 0 0 Z " fill="#23A3BB" transform="translate(36,64)"/>
<path d="M0 0 C0.66 0.33 1.32 0.66 2 1 C2 2.98 2 4.96 2 7 C1.01 7 0.02 7 -1 7 C-1.625 4.625 -1.625 4.625 -2 2 C-1.34 1.34 -0.68 0.68 0 0 Z " fill="#29C9EC" transform="translate(28,36)"/>
</svg>
